<svg width="37" height="40" viewBox="0 0 37 40" fill="none" xmlns="http://www.w3.org/2000/svg">
<path d="M3.97448 0C10.9116 0 17.8486 0 24.7958 0C24.826 0.0204443 24.8562 0.0408886 24.8965 0.0511107C26.9102 0.306664 28.8332 2.17732 28.7929 4.94752C28.7325 9.10793 28.7829 13.2581 28.7829 17.4185C28.7829 17.5719 28.7829 17.715 28.7829 17.8683C24.0709 17.5821 20.2953 19.279 17.7681 23.3167C15.251 27.3545 15.392 31.5455 17.6271 35.7059C17.5567 35.7162 17.5265 35.7264 17.4862 35.7264C13.1165 35.7264 8.74687 35.7468 4.37721 35.7162C1.99101 35.6957 0.00755125 33.6308 0.00755125 31.1878C-0.00251708 22.3149 -0.00251708 13.4421 0.00755125 4.5693C0.00755125 3.07687 0.651925 1.88087 1.79972 0.950659C2.43402 0.42933 3.18915 0.183999 3.97448 0ZM9.1194 25.9234C8.05215 25.9234 6.99498 25.9234 5.92773 25.9234C5.7465 25.9234 5.54514 25.9336 5.37398 25.9949C4.85042 26.1687 4.55844 26.7207 4.64905 27.2625C4.74974 27.8144 5.21288 28.2029 5.84719 28.2029C8.01188 28.2131 10.1766 28.2131 12.3513 28.2029C13.1165 28.2029 13.6099 27.7224 13.5998 27.0376C13.5897 26.3629 13.0964 25.9234 12.3513 25.9234C11.274 25.9234 10.1967 25.9234 9.1194 25.9234ZM9.13953 7.53372C8.06222 7.53372 6.98491 7.53372 5.9076 7.53372C5.73643 7.53372 5.5552 7.54394 5.39411 7.59505C4.87056 7.76883 4.56851 8.30038 4.65912 8.8626C4.74974 9.41459 5.21288 9.81326 5.84719 9.81326C8.04208 9.82348 10.2269 9.82348 12.4218 9.81326C13.1467 9.81326 13.63 9.30215 13.6099 8.62749C13.5897 7.97327 13.1065 7.53372 12.3715 7.53372C11.2942 7.53372 10.2168 7.53372 9.13953 7.53372ZM9.1194 14.403C10.1564 14.403 11.1935 14.403 12.2406 14.403C12.4117 14.403 12.593 14.3928 12.7641 14.3519C13.3179 14.219 13.6602 13.7079 13.6099 13.1252C13.5595 12.5732 13.1165 12.1235 12.5628 12.1235C10.2873 12.1132 8.00181 12.1132 5.72637 12.1235C5.15247 12.1235 4.6994 12.5835 4.65912 13.1457C4.61885 13.7283 4.97124 14.2292 5.525 14.3519C5.68609 14.3826 5.84719 14.3928 6.00828 14.3928C7.03525 14.403 8.07229 14.403 9.1194 14.403ZM9.1194 16.6928C8.04208 16.6928 6.96477 16.6928 5.88746 16.6928C5.7163 16.6928 5.53507 16.703 5.37398 16.7643C4.85042 16.9483 4.55844 17.4799 4.64905 18.0421C4.74974 18.5941 5.21288 18.9825 5.84719 18.9825C8.02195 18.9927 10.2068 18.9927 12.3815 18.9825C13.1165 18.9825 13.5998 18.4919 13.5897 17.8172C13.5797 17.1528 13.0964 16.703 12.3715 16.703C11.3042 16.6928 10.2068 16.6928 9.1194 16.6928ZM9.13953 21.2723C8.05215 21.2723 6.96477 21.2723 5.86732 21.2723C5.12227 21.2723 4.63899 21.7323 4.63899 22.4069C4.63899 23.0816 5.13234 23.5518 5.86732 23.5518C8.03202 23.562 10.1967 23.562 12.3715 23.5518C13.1065 23.5518 13.5998 23.0714 13.5998 22.4069C13.5998 21.7323 13.1065 21.2723 12.3715 21.2723C11.2942 21.2723 10.2168 21.2723 9.13953 21.2723ZM19.6307 7.53372C18.5534 7.53372 17.4761 7.53372 16.3988 7.53372C15.6537 7.53372 15.1604 7.98349 15.1503 8.65816C15.1403 9.33282 15.6336 9.81326 16.3686 9.82348C18.5434 9.8337 20.7282 9.8337 22.903 9.82348C23.6379 9.82348 24.1212 9.32259 24.1112 8.64793C24.1011 7.99372 23.6077 7.54394 22.8929 7.53372C21.8055 7.53372 20.7181 7.53372 19.6307 7.53372ZM19.6509 12.1132C18.5635 12.1132 17.4761 12.1132 16.3787 12.1132C15.6537 12.1132 15.1604 12.5528 15.1503 13.207C15.1302 13.8817 15.6135 14.3928 16.3485 14.3928C18.5434 14.403 20.7282 14.403 22.9231 14.3928C23.648 14.3928 24.1414 13.8817 24.1212 13.207C24.1011 12.5528 23.6178 12.1132 22.8828 12.1132C21.8055 12.1132 20.7282 12.1132 19.6509 12.1132ZM17.899 16.6928C17.3754 16.6928 16.8519 16.6825 16.3283 16.6928C15.6638 16.703 15.1805 17.1425 15.1604 17.7661C15.1302 18.4203 15.5833 18.9416 16.2579 18.9621C17.3553 18.9927 18.4628 18.9927 19.5603 18.9621C20.2046 18.9416 20.6778 18.3999 20.6476 17.7865C20.6174 17.1528 20.1442 16.703 19.4797 16.6928C18.9562 16.6825 18.4326 16.6928 17.899 16.6928Z" fill="#FFCD4B"/>
<path d="M26.6695 39.069C25.9345 38.8952 25.1592 38.8032 24.4545 38.5375C20.9809 37.2393 18.8363 34.7246 18.2624 31.014C17.4872 25.9745 20.6084 21.4154 25.4714 20.2807C30.717 19.0541 36.0129 22.7749 36.7479 28.1927C37.4527 33.4366 33.959 38.1899 28.8241 38.977C28.653 39.0077 28.4818 39.0384 28.3106 39.069C27.777 39.069 27.2233 39.069 26.6695 39.069ZM26.8306 30.2473C26.2265 29.8078 25.6526 29.3784 25.0686 28.9593C24.5149 28.5709 23.8302 28.6629 23.4678 29.174C23.0852 29.6953 23.206 30.4006 23.7597 30.8198C24.6055 31.4535 25.4512 32.0771 26.3171 32.7006C26.9111 33.13 27.5052 33.0482 27.9683 32.4655C28.4919 31.8215 29.0054 31.1571 29.5188 30.5029C30.1733 29.6851 30.8277 28.8571 31.4721 28.0291C31.7842 27.6304 31.8144 27.1091 31.5828 26.7105C31.3412 26.3016 30.8982 26.0562 30.4351 26.1891C30.1531 26.2709 29.8612 26.4549 29.6699 26.6798C28.7134 27.8451 27.7972 29.0309 26.8306 30.2473Z" fill="#FFCD4B"/>
</svg>
