<svg width="13" height="15" viewBox="0 0 13 15" fill="none" xmlns="http://www.w3.org/2000/svg">
<path d="M11.7273 6.24182C11.7273 10.6453 6.36364 14.4197 6.36364 14.4197C6.36364 14.4197 1 10.6453 1 6.24182C1 4.74026 1.5651 3.30021 2.57097 2.23845C3.57685 1.17669 4.94111 0.5802 6.36364 0.5802C7.78616 0.5802 9.15042 1.17669 10.1563 2.23845C11.1622 3.30021 11.7273 4.74026 11.7273 6.24182Z" stroke="#FDC022" stroke-linecap="round" stroke-linejoin="round"/>
<path d="M6.36405 8.12896C7.35147 8.12896 8.15193 7.28403 8.15193 6.24176C8.15193 5.19948 7.35147 4.35455 6.36405 4.35455C5.37663 4.35455 4.57617 5.19948 4.57617 6.24176C4.57617 7.28403 5.37663 8.12896 6.36405 8.12896Z" stroke="#FDC022" stroke-linecap="round" stroke-linejoin="round"/>
</svg>
