<svg width="24" height="23" viewBox="0 0 24 23" fill="none" xmlns="http://www.w3.org/2000/svg">
<path d="M9.0812 21.3784C9.60363 21.3784 10.0271 20.9549 10.0271 20.4325C10.0271 19.91 9.60363 19.4865 9.0812 19.4865C8.55877 19.4865 8.13525 19.91 8.13525 20.4325C8.13525 20.9549 8.55877 21.3784 9.0812 21.3784Z" stroke="#FDC022" stroke-width="1.89189" stroke-linecap="round" stroke-linejoin="round"/>
<path d="M19.4865 21.3784C20.0089 21.3784 20.4324 20.9549 20.4324 20.4325C20.4324 19.91 20.0089 19.4865 19.4865 19.4865C18.964 19.4865 18.5405 19.91 18.5405 20.4325C18.5405 20.9549 18.964 21.3784 19.4865 21.3784Z" stroke="#FDC022" stroke-width="1.89189" stroke-linecap="round" stroke-linejoin="round"/>
<path d="M1.51367 1.51355H5.29746L7.83259 14.1798C7.91909 14.6153 8.15602 15.0065 8.50189 15.2849C8.84776 15.5633 9.28055 15.7112 9.72448 15.7027H18.9191C19.363 15.7112 19.7958 15.5633 20.1417 15.2849C20.4875 15.0065 20.7245 14.6153 20.811 14.1798L22.3245 6.24328H6.2434" stroke="#FDC022" stroke-width="1.89189" stroke-linecap="round" stroke-linejoin="round"/>
</svg>
