<svg width="102" height="102" viewBox="0 0 102 102" fill="none" xmlns="http://www.w3.org/2000/svg">
<g filter="url(#filter0_d_388_415)">
<circle cx="51" cy="47" r="33" fill="white"/>
</g>
<path d="M51.0427 25.2686C63.3864 25.2686 72.731 35.389 72.731 46.9676C72.731 60.3962 61.7782 68.732 50.9993 68.732C47.4353 68.732 43.4801 67.7743 40.3073 65.9026C39.199 65.2279 38.2645 64.7273 37.0693 65.1191L32.6795 66.4249C31.5711 66.7732 30.5715 65.9026 30.8975 64.7273L32.3535 59.8521C32.5925 59.1774 32.5491 58.4592 32.2014 57.8933C30.3324 54.4546 29.2676 50.6893 29.2676 47.0329C29.2676 35.5849 38.4166 25.2686 51.0427 25.2686ZM60.9741 44.2688C59.4312 44.2688 58.1925 45.5094 58.1925 47.0547C58.1925 48.5782 59.4312 49.8405 60.9741 49.8405C62.5171 49.8405 63.7558 48.5782 63.7558 47.0547C63.7558 45.5094 62.5171 44.2688 60.9741 44.2688ZM50.9558 44.2688C49.4346 44.2471 48.1742 45.5094 48.1742 47.0329C48.1742 48.5782 49.4129 49.8187 50.9558 49.8405C52.4988 49.8405 53.7375 48.5782 53.7375 47.0547C53.7375 45.5094 52.4988 44.2688 50.9558 44.2688ZM40.9375 44.2688C39.3946 44.2688 38.1558 45.5094 38.1558 47.0547C38.1558 48.5782 39.4163 49.8405 40.9375 49.8405C42.4805 49.8187 43.7192 48.5782 43.7192 47.0547C43.7192 45.5094 42.4805 44.2688 40.9375 44.2688Z" fill="#FDC022"/>
<defs>
<filter id="filter0_d_388_415" x="0" y="0" width="102" height="102" filterUnits="userSpaceOnUse" color-interpolation-filters="sRGB">
<feFlood flood-opacity="0" result="BackgroundImageFix"/>
<feColorMatrix in="SourceAlpha" type="matrix" values="0 0 0 0 0 0 0 0 0 0 0 0 0 0 0 0 0 0 127 0" result="hardAlpha"/>
<feMorphology radius="3" operator="dilate" in="SourceAlpha" result="effect1_dropShadow_388_415"/>
<feOffset dy="4"/>
<feGaussianBlur stdDeviation="7.5"/>
<feComposite in2="hardAlpha" operator="out"/>
<feColorMatrix type="matrix" values="0 0 0 0 0 0 0 0 0 0 0 0 0 0 0 0 0 0 0.21 0"/>
<feBlend mode="normal" in2="BackgroundImageFix" result="effect1_dropShadow_388_415"/>
<feBlend mode="normal" in="SourceGraphic" in2="effect1_dropShadow_388_415" result="shape"/>
</filter>
</defs>
</svg>
