<svg width="13" height="15" viewBox="0 0 13 15" fill="none" xmlns="http://www.w3.org/2000/svg">
<path fill-rule="evenodd" clip-rule="evenodd" d="M9.19563 0C9.47163 0 9.69563 0.223999 9.69563 0.499998L9.69594 1.0652C10.6693 1.13194 11.4778 1.46536 12.05 2.03873C12.6746 2.66606 13.0033 3.56805 13 4.65005V10.732C13 12.9534 11.5893 14.3333 9.3193 14.3333H3.68065C1.41066 14.3333 0 12.934 0 10.6814V4.64872C0 2.55352 1.25803 1.20862 3.30978 1.06543L3.31019 0.499998C3.31019 0.223999 3.53419 0 3.81019 0C4.08618 0 4.31018 0.223999 4.31018 0.499998L4.30998 1.05266H8.6953L8.69563 0.499998C8.69563 0.223999 8.91963 0 9.19563 0ZM12 5.93598H0.999996V10.6814C0.999996 12.392 1.95199 13.3333 3.68065 13.3333H9.3193C11.048 13.3333 12 12.4094 12 10.732L12 5.93598ZM9.46743 10.1308C9.74343 10.1308 9.96743 10.3548 9.96743 10.6308C9.96743 10.9068 9.74343 11.1308 9.46743 11.1308C9.19143 11.1308 8.96477 10.9068 8.96477 10.6308C8.96477 10.3548 9.18543 10.1308 9.46143 10.1308H9.46743ZM6.50911 10.1308C6.78511 10.1308 7.00911 10.3548 7.00911 10.6308C7.00911 10.9068 6.78511 11.1308 6.50911 11.1308C6.23311 11.1308 6.00644 10.9068 6.00644 10.6308C6.00644 10.3548 6.22711 10.1308 6.50311 10.1308H6.50911ZM3.54459 10.1308C3.82059 10.1308 4.04458 10.3548 4.04458 10.6308C4.04458 10.9068 3.82059 11.1308 3.54459 11.1308C3.26859 11.1308 3.04126 10.9068 3.04126 10.6308C3.04126 10.3548 3.26259 10.1308 3.53859 10.1308H3.54459ZM9.46743 7.5397C9.74343 7.5397 9.96743 7.7637 9.96743 8.0397C9.96743 8.3157 9.74343 8.5397 9.46743 8.5397C9.19143 8.5397 8.96477 8.3157 8.96477 8.0397C8.96477 7.7637 9.18543 7.5397 9.46143 7.5397H9.46743ZM6.50911 7.5397C6.78511 7.5397 7.00911 7.7637 7.00911 8.0397C7.00911 8.3157 6.78511 8.5397 6.50911 8.5397C6.23311 8.5397 6.00644 8.3157 6.00644 8.0397C6.00644 7.7637 6.22711 7.5397 6.50311 7.5397H6.50911ZM3.54459 7.5397C3.82059 7.5397 4.04458 7.7637 4.04458 8.0397C4.04458 8.3157 3.82059 8.5397 3.54459 8.5397C3.26859 8.5397 3.04126 8.3157 3.04126 8.0397C3.04126 7.7637 3.26259 7.5397 3.53859 7.5397H3.54459ZM8.6953 2.05266H4.30998L4.31018 2.69399C4.31018 2.96999 4.08618 3.19399 3.81019 3.19399C3.53419 3.19399 3.31019 2.96999 3.31019 2.69399L3.30983 2.06779C1.81635 2.19325 0.999996 3.09856 0.999996 4.64872V4.93598H12L12 4.64872C12.0026 3.82539 11.7813 3.18539 11.342 2.74539C10.9563 2.3586 10.3925 2.12759 9.6962 2.06811L9.69563 2.69399C9.69563 2.96999 9.47163 3.19399 9.19563 3.19399C8.91963 3.19399 8.69563 2.96999 8.69563 2.69399L8.6953 2.05266Z" fill="#FDC022"/>
</svg>
