<svg width="20" height="22" viewBox="0 0 20 22" fill="none" xmlns="http://www.w3.org/2000/svg">
<path d="M15.7246 6.88984C15.7246 5.32776 15.1041 3.82965 13.9995 2.72509C12.8949 1.62053 11.3968 1 9.83476 1C8.27267 1 6.77457 1.62053 5.67001 2.72509C4.56545 3.82965 3.94492 5.32776 3.94492 6.88984C3.94492 13.7613 1 15.7246 1 15.7246H18.6695C18.6695 15.7246 15.7246 13.7613 15.7246 6.88984Z" stroke="white" stroke-width="2" stroke-linecap="round" stroke-linejoin="round"/>
<path d="M11.5332 19.6512C11.3606 19.9487 11.1129 20.1956 10.8149 20.3673C10.5168 20.539 10.1789 20.6293 9.83495 20.6293C9.49101 20.6293 9.1531 20.539 8.85506 20.3673C8.55701 20.1956 8.3093 19.9487 8.13672 19.6512" stroke="white" stroke-width="2" stroke-linecap="round" stroke-linejoin="round"/>
</svg>
