<svg width="19" height="19" viewBox="0 0 19 19" fill="none" xmlns="http://www.w3.org/2000/svg">
<mask id="path-1-inside-1_273_262" fill="white">
<path fill-rule="evenodd" clip-rule="evenodd" d="M9.7501 1.99995C9.66376 1.99995 9.45125 2.02367 9.33835 2.24947L7.60596 5.7133C7.33177 6.26072 6.80332 6.64117 6.19234 6.72845L2.3139 7.28725C2.05775 7.32426 1.97046 7.514 1.9439 7.5937C1.92018 7.67054 1.88223 7.86598 2.05869 8.03486L4.86316 10.7293C5.31001 11.159 5.51304 11.7786 5.40678 12.3848L4.74646 16.1892C4.70567 16.4274 4.85462 16.5659 4.92103 16.6133C4.99124 16.6665 5.17909 16.7718 5.41153 16.6503L8.87916 14.8525C9.42563 14.5707 10.0765 14.5707 10.621 14.8525L14.0877 16.6494C14.3211 16.7699 14.509 16.6646 14.5801 16.6133C14.6465 16.5659 14.7955 16.4274 14.7547 16.1892L14.0925 12.3848C13.9862 11.7786 14.1892 11.159 14.6361 10.7293L17.4406 8.03486C17.618 7.86598 17.58 7.6696 17.5554 7.5937C17.5297 7.514 17.4425 7.32426 17.1863 7.28725L13.3079 6.72845C12.6978 6.64117 12.1694 6.26072 11.8952 5.71235L10.1609 2.24947C10.049 2.02367 9.83643 1.99995 9.7501 1.99995ZM5.19332 18.1285C4.80149 18.1285 4.41251 18.0051 4.0795 17.7623C3.50457 17.341 3.22279 16.6456 3.34518 15.9454L4.0055 12.141C4.03017 11.9996 3.98178 11.8564 3.87742 11.7558L1.07296 9.06139C0.556845 8.5671 0.371841 7.83657 0.59005 7.15823C0.810157 6.47229 1.39268 5.98179 2.11087 5.87933L5.98931 5.32052C6.13921 5.29965 6.26824 5.20762 6.33275 5.0767L8.06609 1.61191C8.38582 0.973415 9.03096 0.576843 9.7501 0.576843C10.4692 0.576843 11.1144 0.973415 11.4341 1.61191L13.1684 5.07575C13.2339 5.20763 13.3619 5.29965 13.5109 5.32052L17.3893 5.87933C18.1075 5.98179 18.69 6.47229 18.9101 7.15823C19.1284 7.83657 18.9424 8.5671 18.4263 9.06139L15.6218 11.7558C15.5175 11.8564 15.47 11.9996 15.4947 12.14L16.156 15.9454C16.2774 16.6465 15.9956 17.342 15.4197 17.7623C14.8363 18.1901 14.0763 18.248 13.4321 17.9122L9.96641 16.1162C9.83074 16.046 9.66851 16.046 9.53284 16.1162L6.06711 17.9131C5.79007 18.0573 5.49122 18.1285 5.19332 18.1285Z"/>
</mask>
<path fill-rule="evenodd" clip-rule="evenodd" d="M9.7501 1.99995C9.66376 1.99995 9.45125 2.02367 9.33835 2.24947L7.60596 5.7133C7.33177 6.26072 6.80332 6.64117 6.19234 6.72845L2.3139 7.28725C2.05775 7.32426 1.97046 7.514 1.9439 7.5937C1.92018 7.67054 1.88223 7.86598 2.05869 8.03486L4.86316 10.7293C5.31001 11.159 5.51304 11.7786 5.40678 12.3848L4.74646 16.1892C4.70567 16.4274 4.85462 16.5659 4.92103 16.6133C4.99124 16.6665 5.17909 16.7718 5.41153 16.6503L8.87916 14.8525C9.42563 14.5707 10.0765 14.5707 10.621 14.8525L14.0877 16.6494C14.3211 16.7699 14.509 16.6646 14.5801 16.6133C14.6465 16.5659 14.7955 16.4274 14.7547 16.1892L14.0925 12.3848C13.9862 11.7786 14.1892 11.159 14.6361 10.7293L17.4406 8.03486C17.618 7.86598 17.58 7.6696 17.5554 7.5937C17.5297 7.514 17.4425 7.32426 17.1863 7.28725L13.3079 6.72845C12.6978 6.64117 12.1694 6.26072 11.8952 5.71235L10.1609 2.24947C10.049 2.02367 9.83643 1.99995 9.7501 1.99995ZM5.19332 18.1285C4.80149 18.1285 4.41251 18.0051 4.0795 17.7623C3.50457 17.341 3.22279 16.6456 3.34518 15.9454L4.0055 12.141C4.03017 11.9996 3.98178 11.8564 3.87742 11.7558L1.07296 9.06139C0.556845 8.5671 0.371841 7.83657 0.59005 7.15823C0.810157 6.47229 1.39268 5.98179 2.11087 5.87933L5.98931 5.32052C6.13921 5.29965 6.26824 5.20762 6.33275 5.0767L8.06609 1.61191C8.38582 0.973415 9.03096 0.576843 9.7501 0.576843C10.4692 0.576843 11.1144 0.973415 11.4341 1.61191L13.1684 5.07575C13.2339 5.20763 13.3619 5.29965 13.5109 5.32052L17.3893 5.87933C18.1075 5.98179 18.69 6.47229 18.9101 7.15823C19.1284 7.83657 18.9424 8.5671 18.4263 9.06139L15.6218 11.7558C15.5175 11.8564 15.47 11.9996 15.4947 12.14L16.156 15.9454C16.2774 16.6465 15.9956 17.342 15.4197 17.7623C14.8363 18.1901 14.0763 18.248 13.4321 17.9122L9.96641 16.1162C9.83074 16.046 9.66851 16.046 9.53284 16.1162L6.06711 17.9131C5.79007 18.0573 5.49122 18.1285 5.19332 18.1285Z" fill="black"/>
<path d="M9.33835 2.24947L25.4372 10.3011L25.438 10.2993L9.33835 2.24947ZM7.60596 5.7133L23.7001 13.7743L23.7048 13.7649L7.60596 5.7133ZM6.19234 6.72845L3.64675 -11.0906L3.63608 -11.0891L3.6254 -11.0876L6.19234 6.72845ZM2.3139 7.28725L-0.253032 -10.5288L-0.259389 -10.5279L2.3139 7.28725ZM1.9439 7.5937L-15.1324 1.9016L-15.1961 2.09273L-15.2555 2.28523L1.9439 7.5937ZM2.05869 8.03486L14.5294 -4.9452L14.5166 -4.95744L14.5039 -4.96966L2.05869 8.03486ZM4.86316 10.7293L17.3408 -2.24414L17.3338 -2.25079L4.86316 10.7293ZM5.40678 12.3848L-12.3229 9.27726L-12.3255 9.29195L-12.3281 9.30664L5.40678 12.3848ZM4.74646 16.1892L-12.9884 13.1111L-12.9918 13.1305L-12.9951 13.1499L4.74646 16.1892ZM4.92103 16.6133L15.783 2.26002L15.5852 2.11032L15.3833 1.96613L4.92103 16.6133ZM5.41153 16.6503L-2.87354 0.670416L-2.89857 0.683394L-2.92356 0.696451L5.41153 16.6503ZM8.87916 14.8525L0.629954 -1.14598L0.612014 -1.13673L0.594094 -1.12744L8.87916 14.8525ZM10.621 14.8525L18.9044 -1.1283L18.8929 -1.13426L10.621 14.8525ZM14.0877 16.6494L5.80431 32.6302L5.8174 32.6369L5.83049 32.6437L14.0877 16.6494ZM14.5801 16.6133L4.11783 1.96613L4.09019 1.98587L4.06263 2.00571L14.5801 16.6133ZM14.7547 16.1892L32.4962 13.1499L32.4922 13.1262L32.488 13.1025L14.7547 16.1892ZM14.0925 12.3848L31.8258 9.29806L31.824 9.28766L31.8222 9.27726L14.0925 12.3848ZM14.6361 10.7293L2.1654 -2.25079L2.15848 -2.24414L14.6361 10.7293ZM17.4406 8.03486L5.03025 -5.00294L4.99999 -4.97414L4.96987 -4.9452L17.4406 8.03486ZM17.5554 7.5937L0.418839 13.1019L0.427745 13.1296L0.43674 13.1572L17.5554 7.5937ZM17.1863 7.28725L19.7596 -10.5279L19.7532 -10.5288L17.1863 7.28725ZM13.3079 6.72845L15.8748 -11.0876L15.8661 -11.0888L15.8573 -11.0901L13.3079 6.72845ZM11.8952 5.71235L27.9949 -2.33749L27.9896 -2.34807L11.8952 5.71235ZM10.1609 2.24947L-5.9658 10.2451L-5.94971 10.2775L-5.93349 10.3099L10.1609 2.24947ZM4.0795 17.7623L-6.55881 32.2821L-6.54306 32.2937L-6.52729 32.3052L4.0795 17.7623ZM3.34518 15.9454L21.0763 19.0448L21.0782 19.0342L21.08 19.0236L3.34518 15.9454ZM4.0055 12.141L-13.7266 9.0468L-13.728 9.05481L-13.7293 9.06282L4.0055 12.141ZM3.87742 11.7558L16.3675 -1.2056L16.3578 -1.21494L16.3481 -1.22426L3.87742 11.7558ZM1.07296 9.06139L13.5436 -3.91867L13.5334 -3.92853L13.5231 -3.93837L1.07296 9.06139ZM0.59005 7.15823L17.7253 12.6703L17.7293 12.658L0.59005 7.15823ZM2.11087 5.87933L4.65316 23.6989L4.66549 23.6971L4.67781 23.6954L2.11087 5.87933ZM5.98931 5.32052L3.50693 -12.5075L3.46464 -12.5016L3.42237 -12.4955L5.98931 5.32052ZM6.33275 5.0767L-9.76517 -2.97668L-9.78947 -2.92812L-9.81347 -2.87941L6.33275 5.0767ZM8.06609 1.61191L-8.02881 -6.4475L-8.03183 -6.44146L8.06609 1.61191ZM11.4341 1.61191L27.5294 -6.44675L27.529 -6.4475L11.4341 1.61191ZM13.1684 5.07575L29.2912 -2.92766L29.2775 -2.95531L29.2637 -2.98291L13.1684 5.07575ZM13.5109 5.32052L16.0778 -12.4955L16.0433 -12.5005L16.0088 -12.5053L13.5109 5.32052ZM17.3893 5.87933L14.8224 23.6954L14.8347 23.6971L14.847 23.6989L17.3893 5.87933ZM18.9101 7.15823L1.77092 12.658L1.77488 12.6703L18.9101 7.15823ZM18.4263 9.06139L5.97615 -3.93837L5.96587 -3.92853L5.95561 -3.91867L18.4263 9.06139ZM15.6218 11.7558L3.15114 -1.22426L3.14144 -1.21494L3.13175 -1.2056L15.6218 11.7558ZM15.4947 12.14L33.2289 9.05832L33.2261 9.04194L33.2232 9.02557L15.4947 12.14ZM16.156 15.9454L33.8919 12.8734L33.8902 12.8637L16.156 15.9454ZM15.4197 17.7623L4.80846 3.22263L4.79182 3.23478L4.7752 3.24696L15.4197 17.7623ZM13.4321 17.9122L21.7535 1.95111L21.7337 1.94079L21.7139 1.93052L13.4321 17.9122ZM9.96641 16.1162L18.2482 0.134557L18.2391 0.129849L9.96641 16.1162ZM9.53284 16.1162L1.26018 0.129844L1.24764 0.136349L9.53284 16.1162ZM6.06711 17.9131L-2.2181 1.93326L-2.23112 1.94001L-2.24413 1.94678L6.06711 17.9131ZM9.7501 -16.0001C7.26404 -16.0001 -2.02876 -15.2655 -6.76134 -5.80038L25.438 10.2993C23.4002 14.3749 20.0934 17.0758 16.7715 18.5297C13.8003 19.8302 11.1788 19.9999 9.7501 19.9999V-16.0001ZM-6.76046 -5.80214L-8.49285 -2.33831L23.7048 13.7649L25.4372 10.3011L-6.76046 -5.80214ZM-8.48815 -2.3477C-6.1062 -7.10335 -1.5565 -10.3473 3.64675 -11.0906L8.73792 24.5475C15.1631 23.6297 20.7697 19.6248 23.7001 13.7743L-8.48815 -2.3477ZM3.6254 -11.0876L-0.253032 -10.5288L4.88084 25.1033L8.75927 24.5445L3.6254 -11.0876ZM-0.259389 -10.5279C-10.4882 -9.05036 -14.2302 -0.805037 -15.1324 1.9016L19.0202 13.2858C18.5614 14.6623 17.542 17.1675 15.279 19.623C12.7575 22.359 9.16972 24.4838 4.8872 25.1024L-0.259389 -10.5279ZM-15.2555 2.28523C-16.0583 4.88606 -17.9118 13.8377 -10.3865 21.0394L14.5039 -4.96966C17.6779 -1.93217 19.3507 1.92996 19.7965 5.62255C20.1958 8.93066 19.5612 11.5481 19.1433 12.9022L-15.2555 2.28523ZM-10.412 21.0149L-7.60753 23.7093L17.3338 -2.25079L14.5294 -4.9452L-10.412 21.0149ZM-7.61445 23.7027C-11.4569 20.007 -13.2576 14.6096 -12.3229 9.27726L23.1365 15.4924C24.2837 8.9475 22.077 2.31106 17.3408 -2.24414L-7.61445 23.7027ZM-12.3281 9.30664L-12.9884 13.1111L22.4813 19.2674L23.1416 15.463L-12.3281 9.30664ZM-12.9951 13.1499C-14.7625 23.4667 -7.88673 29.5852 -5.54126 31.2605L15.3833 1.96613C16.7247 2.92428 18.7699 4.66931 20.3976 7.49985C22.2161 10.6623 23.2495 14.7834 22.488 19.2286L-12.9951 13.1499ZM-5.94094 30.9666C-3.38541 32.9006 4.54291 37.4127 13.7466 32.6042L-2.92356 0.696451C0.96539 -1.33533 5.15845 -1.68341 8.80112 -0.919231C12.0623 -0.235092 14.405 1.21723 15.783 2.26002L-5.94094 30.9666ZM13.6966 32.6302L17.1642 30.8324L0.594094 -1.12744L-2.87354 0.670416L13.6966 32.6302ZM17.1284 30.8509C12.5082 33.2332 7.0015 33.2464 2.34915 30.8392L18.8929 -1.13426C13.1514 -4.10504 6.34311 -4.09182 0.629954 -1.14598L17.1284 30.8509ZM2.33763 30.8333L5.80431 32.6302L22.3711 0.668609L18.9044 -1.1283L2.33763 30.8333ZM5.83049 32.6437C15.0063 37.3808 22.8365 32.849 25.0976 31.221L4.06263 2.00571C5.25282 1.14878 7.51639 -0.259418 10.7325 -0.927743C14.3138 -1.67197 18.4656 -1.34771 22.3449 0.655066L5.83049 32.6437ZM25.0424 31.2605C27.3878 29.5852 34.2636 23.4667 32.4962 13.1499L-2.98685 19.2286C-3.74838 14.7834 -2.71499 10.6623 -0.89643 7.49983C0.731245 4.6693 2.77643 2.92427 4.11783 1.96613L25.0424 31.2605ZM32.488 13.1025L31.8258 9.29806L-3.64089 15.4716L-2.97867 19.276L32.488 13.1025ZM31.8222 9.27726C32.7568 14.6096 30.9562 20.007 27.1137 23.7027L2.15848 -2.24414C-2.57772 2.31106 -4.7844 8.9475 -3.63726 15.4924L31.8222 9.27726ZM27.1068 23.7093L29.9112 21.0149L4.96987 -4.9452L2.16541 -2.25079L27.1068 23.7093ZM29.8509 21.0727C37.4023 13.8846 35.6078 4.90344 34.674 2.03015L0.43674 13.1572C-0.0619819 11.6227 -0.697945 8.95257 -0.296922 5.62544C0.151186 1.90767 1.84069 -1.96689 5.03025 -5.00294L29.8509 21.0727ZM34.6919 2.08553C33.7553 -0.828184 29.977 -9.05201 19.7596 -10.5279L14.613 25.1024C10.3333 24.4842 6.73826 22.3599 4.20851 19.6093C1.93888 17.1415 0.902299 14.606 0.418839 13.1019L34.6919 2.08553ZM19.7532 -10.5288L15.8748 -11.0876L10.7409 24.5445L14.6194 25.1033L19.7532 -10.5288ZM15.8573 -11.0901C21.067 -10.3447 25.6164 -7.09438 27.9949 -2.33749L-4.2045 13.7622C-1.27768 19.6158 4.32869 23.627 10.7584 24.547L15.8573 -11.0901ZM27.9896 -2.34807L26.2553 -5.81096L-5.93349 10.3099L-4.1992 13.7728L27.9896 -2.34807ZM26.2876 -5.74613C21.5643 -15.2729 12.2164 -16.0001 9.7501 -16.0001V19.9999C8.32392 19.9999 5.69698 19.831 2.71931 18.5257C-0.613374 17.0648 -3.93196 14.3472 -5.9658 10.2451L26.2876 -5.74613ZM5.19332 0.128464C8.60995 0.128464 11.9358 1.21328 14.6863 3.21935L-6.52729 32.3052C-3.11076 34.797 0.993027 36.1285 5.19332 36.1285V0.128464ZM14.7178 3.24239C19.6284 6.84022 22.1407 12.9557 21.0763 19.0448L-14.386 12.8461C-15.6951 20.3355 -12.6192 27.8418 -6.55881 32.2821L14.7178 3.24239ZM21.08 19.0236L21.7404 15.2192L-13.7293 9.06282L-14.3897 12.8673L21.08 19.0236ZM21.7376 15.2352C22.8212 9.02496 20.6453 2.91663 16.3675 -1.2056L-8.61266 24.7172C-12.6817 20.7961 -14.7609 14.9743 -13.7266 9.0468L21.7376 15.2352ZM16.3481 -1.22426L13.5436 -3.91867L-11.3977 22.0415L-8.59327 24.7359L16.3481 -1.22426ZM13.5231 -3.93837C17.9729 0.323311 19.6211 6.77688 17.7253 12.6703L-16.5452 1.64618C-18.8774 8.89627 -16.8592 16.8109 -11.3772 22.0612L13.5231 -3.93837ZM17.7293 12.658C15.8296 18.5782 10.7124 22.8344 4.65316 23.6989L-0.431414 -11.9402C-7.92705 -10.8708 -14.2092 -5.6336 -16.5492 1.6585L17.7293 12.658ZM4.67781 23.6954L8.55624 23.1366L3.42237 -12.4955L-0.456062 -11.9367L4.67781 23.6954ZM8.47169 23.1485C14.3224 22.3339 19.6857 18.7015 22.479 13.0328L-9.81347 -2.87941C-7.14924 -8.28623 -2.044 -11.7346 3.50693 -12.5075L8.47169 23.1485ZM22.4307 13.1301L24.164 9.66529L-8.03183 -6.44146L-9.76517 -2.97668L22.4307 13.1301ZM24.161 9.67132C21.4027 15.1797 15.7844 18.5768 9.7501 18.5768V-17.4232C2.27752 -17.4232 -4.63109 -13.2329 -8.02881 -6.4475L24.161 9.67132ZM9.7501 18.5768C3.71581 18.5768 -1.90252 15.1797 -4.6608 9.67132L27.529 -6.4475C24.1313 -13.2329 17.2227 -17.4232 9.7501 -17.4232V18.5768ZM-4.66117 9.67058L-2.92688 13.1344L29.2637 -2.98291L27.5294 -6.44675L-4.66117 9.67058ZM-2.95442 13.0792C-0.205775 18.6163 5.07186 22.3138 11.013 23.1464L16.0088 -12.5053C21.652 -11.7145 26.6735 -8.20105 29.2912 -2.92766L-2.95442 13.0792ZM10.944 23.1366L14.8224 23.6954L19.9563 -11.9367L16.0778 -12.4955L10.944 23.1366ZM14.847 23.6989C8.78779 22.8344 3.67064 18.5782 1.77092 12.658L36.0494 1.6585C33.7094 -5.63361 27.4272 -10.8708 19.9316 -11.9402L14.847 23.6989ZM1.77488 12.6703C-0.126748 6.75869 1.54017 0.310059 5.97615 -3.93837L30.8764 22.0612C36.3446 16.8241 38.3835 8.91446 36.0454 1.64618L1.77488 12.6703ZM5.95561 -3.91867L3.15114 -1.22426L28.0925 24.7359L30.897 22.0415L5.95561 -3.91867ZM3.13175 -1.2056C-1.19334 2.96221 -3.31579 9.09558 -2.23381 15.2545L33.2232 9.02557C34.2558 14.9037 32.2283 20.7505 28.1119 24.7172L3.13175 -1.2056ZM-2.23953 15.2218L-1.57826 19.0271L33.8902 12.8637L33.2289 9.05832L-2.23953 15.2218ZM-1.57995 19.0174C-2.63007 12.9546 -0.13431 6.82996 4.80846 3.22263L26.031 32.3019C32.1256 27.854 35.1849 20.3384 33.8919 12.8734L-1.57995 19.0174ZM4.7752 3.24696C9.73586 -0.390855 16.3317 -0.875575 21.7535 1.95111L5.11078 33.8732C11.821 37.3716 19.9367 36.7711 26.0643 32.2775L4.7752 3.24696ZM21.7139 1.93052L18.2482 0.13456L1.68466 32.0978L5.15039 33.8938L21.7139 1.93052ZM18.2391 0.129849C12.9151 -2.62523 6.58419 -2.62523 1.26019 0.129849L17.8055 32.1025C12.7528 34.7172 6.74643 34.7172 1.69376 32.1025L18.2391 0.129849ZM1.24764 0.136349L-2.2181 1.93326L14.3523 33.8929L17.818 32.096L1.24764 0.136349ZM-2.24413 1.94678C0.0528536 0.751091 2.6059 0.128464 5.19332 0.128464V36.1285C8.37654 36.1285 11.5273 35.3635 14.3783 33.8794L-2.24413 1.94678Z" fill="black" mask="url(#path-1-inside-1_273_262)"/>
<path d="M9.33835 2.24947L25.4372 10.3011L25.438 10.2993L9.33835 2.24947ZM7.60596 5.7133L23.7001 13.7743L23.7048 13.7649L7.60596 5.7133ZM6.19234 6.72845L3.64675 -11.0906L3.63608 -11.0891L3.6254 -11.0876L6.19234 6.72845ZM2.3139 7.28725L-0.253032 -10.5288L-0.259389 -10.5279L2.3139 7.28725ZM1.9439 7.5937L-15.1324 1.9016L-15.1961 2.09273L-15.2555 2.28523L1.9439 7.5937ZM2.05869 8.03486L14.5294 -4.9452L14.5166 -4.95744L14.5039 -4.96966L2.05869 8.03486ZM4.86316 10.7293L17.3408 -2.24414L17.3338 -2.25079L4.86316 10.7293ZM5.40678 12.3848L-12.3229 9.27726L-12.3255 9.29195L-12.3281 9.30664L5.40678 12.3848ZM4.74646 16.1892L-12.9884 13.1111L-12.9918 13.1305L-12.9951 13.1499L4.74646 16.1892ZM4.92103 16.6133L15.783 2.26002L15.5852 2.11032L15.3833 1.96613L4.92103 16.6133ZM5.41153 16.6503L-2.87354 0.670416L-2.89857 0.683394L-2.92356 0.696451L5.41153 16.6503ZM8.87916 14.8525L0.629954 -1.14598L0.612014 -1.13673L0.594094 -1.12744L8.87916 14.8525ZM10.621 14.8525L18.9044 -1.1283L18.8929 -1.13426L10.621 14.8525ZM14.0877 16.6494L5.80431 32.6302L5.8174 32.6369L5.83049 32.6437L14.0877 16.6494ZM14.5801 16.6133L4.11783 1.96613L4.09019 1.98587L4.06263 2.00571L14.5801 16.6133ZM14.7547 16.1892L32.4962 13.1499L32.4922 13.1262L32.488 13.1025L14.7547 16.1892ZM14.0925 12.3848L31.8258 9.29806L31.824 9.28766L31.8222 9.27726L14.0925 12.3848ZM14.6361 10.7293L2.1654 -2.25079L2.15848 -2.24414L14.6361 10.7293ZM17.4406 8.03486L5.03025 -5.00294L4.99999 -4.97414L4.96987 -4.9452L17.4406 8.03486ZM17.5554 7.5937L0.418839 13.1019L0.427745 13.1296L0.43674 13.1572L17.5554 7.5937ZM17.1863 7.28725L19.7596 -10.5279L19.7532 -10.5288L17.1863 7.28725ZM13.3079 6.72845L15.8748 -11.0876L15.8661 -11.0888L15.8573 -11.0901L13.3079 6.72845ZM11.8952 5.71235L27.9949 -2.33749L27.9896 -2.34807L11.8952 5.71235ZM10.1609 2.24947L-5.9658 10.2451L-5.94971 10.2775L-5.93349 10.3099L10.1609 2.24947ZM4.0795 17.7623L-6.55881 32.2821L-6.54306 32.2937L-6.52729 32.3052L4.0795 17.7623ZM3.34518 15.9454L21.0763 19.0448L21.0782 19.0342L21.08 19.0236L3.34518 15.9454ZM4.0055 12.141L-13.7266 9.0468L-13.728 9.05481L-13.7293 9.06282L4.0055 12.141ZM3.87742 11.7558L16.3675 -1.2056L16.3578 -1.21494L16.3481 -1.22426L3.87742 11.7558ZM1.07296 9.06139L13.5436 -3.91867L13.5334 -3.92853L13.5231 -3.93837L1.07296 9.06139ZM0.59005 7.15823L17.7253 12.6703L17.7293 12.658L0.59005 7.15823ZM2.11087 5.87933L4.65316 23.6989L4.66549 23.6971L4.67781 23.6954L2.11087 5.87933ZM5.98931 5.32052L3.50693 -12.5075L3.46464 -12.5016L3.42237 -12.4955L5.98931 5.32052ZM6.33275 5.0767L-9.76517 -2.97668L-9.78947 -2.92812L-9.81347 -2.87941L6.33275 5.0767ZM8.06609 1.61191L-8.02881 -6.4475L-8.03183 -6.44146L8.06609 1.61191ZM11.4341 1.61191L27.5294 -6.44675L27.529 -6.4475L11.4341 1.61191ZM13.1684 5.07575L29.2912 -2.92766L29.2775 -2.95531L29.2637 -2.98291L13.1684 5.07575ZM13.5109 5.32052L16.0778 -12.4955L16.0433 -12.5005L16.0088 -12.5053L13.5109 5.32052ZM17.3893 5.87933L14.8224 23.6954L14.8347 23.6971L14.847 23.6989L17.3893 5.87933ZM18.9101 7.15823L1.77092 12.658L1.77488 12.6703L18.9101 7.15823ZM18.4263 9.06139L5.97615 -3.93837L5.96587 -3.92853L5.95561 -3.91867L18.4263 9.06139ZM15.6218 11.7558L3.15114 -1.22426L3.14144 -1.21494L3.13175 -1.2056L15.6218 11.7558ZM15.4947 12.14L33.2289 9.05832L33.2261 9.04194L33.2232 9.02557L15.4947 12.14ZM16.156 15.9454L33.8919 12.8734L33.8902 12.8637L16.156 15.9454ZM15.4197 17.7623L4.80846 3.22263L4.79182 3.23478L4.7752 3.24696L15.4197 17.7623ZM13.4321 17.9122L21.7535 1.95111L21.7337 1.94079L21.7139 1.93052L13.4321 17.9122ZM9.96641 16.1162L18.2482 0.134557L18.2391 0.129849L9.96641 16.1162ZM9.53284 16.1162L1.26018 0.129844L1.24764 0.136349L9.53284 16.1162ZM6.06711 17.9131L-2.2181 1.93326L-2.23112 1.94001L-2.24413 1.94678L6.06711 17.9131ZM9.7501 -16.0001C7.26404 -16.0001 -2.02876 -15.2655 -6.76134 -5.80038L25.438 10.2993C23.4002 14.3749 20.0934 17.0758 16.7715 18.5297C13.8003 19.8302 11.1788 19.9999 9.7501 19.9999V-16.0001ZM-6.76046 -5.80214L-8.49285 -2.33831L23.7048 13.7649L25.4372 10.3011L-6.76046 -5.80214ZM-8.48815 -2.3477C-6.1062 -7.10335 -1.5565 -10.3473 3.64675 -11.0906L8.73792 24.5475C15.1631 23.6297 20.7697 19.6248 23.7001 13.7743L-8.48815 -2.3477ZM3.6254 -11.0876L-0.253032 -10.5288L4.88084 25.1033L8.75927 24.5445L3.6254 -11.0876ZM-0.259389 -10.5279C-10.4882 -9.05036 -14.2302 -0.805037 -15.1324 1.9016L19.0202 13.2858C18.5614 14.6623 17.542 17.1675 15.279 19.623C12.7575 22.359 9.16972 24.4838 4.8872 25.1024L-0.259389 -10.5279ZM-15.2555 2.28523C-16.0583 4.88606 -17.9118 13.8377 -10.3865 21.0394L14.5039 -4.96966C17.6779 -1.93217 19.3507 1.92996 19.7965 5.62255C20.1958 8.93066 19.5612 11.5481 19.1433 12.9022L-15.2555 2.28523ZM-10.412 21.0149L-7.60753 23.7093L17.3338 -2.25079L14.5294 -4.9452L-10.412 21.0149ZM-7.61445 23.7027C-11.4569 20.007 -13.2576 14.6096 -12.3229 9.27726L23.1365 15.4924C24.2837 8.9475 22.077 2.31106 17.3408 -2.24414L-7.61445 23.7027ZM-12.3281 9.30664L-12.9884 13.1111L22.4813 19.2674L23.1416 15.463L-12.3281 9.30664ZM-12.9951 13.1499C-14.7625 23.4667 -7.88673 29.5852 -5.54126 31.2605L15.3833 1.96613C16.7247 2.92428 18.7699 4.66931 20.3976 7.49985C22.2161 10.6623 23.2495 14.7834 22.488 19.2286L-12.9951 13.1499ZM-5.94094 30.9666C-3.38541 32.9006 4.54291 37.4127 13.7466 32.6042L-2.92356 0.696451C0.96539 -1.33533 5.15845 -1.68341 8.80112 -0.919231C12.0623 -0.235092 14.405 1.21723 15.783 2.26002L-5.94094 30.9666ZM13.6966 32.6302L17.1642 30.8324L0.594094 -1.12744L-2.87354 0.670416L13.6966 32.6302ZM17.1284 30.8509C12.5082 33.2332 7.0015 33.2464 2.34915 30.8392L18.8929 -1.13426C13.1514 -4.10504 6.34311 -4.09182 0.629954 -1.14598L17.1284 30.8509ZM2.33763 30.8333L5.80431 32.6302L22.3711 0.668609L18.9044 -1.1283L2.33763 30.8333ZM5.83049 32.6437C15.0063 37.3808 22.8365 32.849 25.0976 31.221L4.06263 2.00571C5.25282 1.14878 7.51639 -0.259418 10.7325 -0.927743C14.3138 -1.67197 18.4656 -1.34771 22.3449 0.655066L5.83049 32.6437ZM25.0424 31.2605C27.3878 29.5852 34.2636 23.4667 32.4962 13.1499L-2.98685 19.2286C-3.74838 14.7834 -2.71499 10.6623 -0.89643 7.49983C0.731245 4.6693 2.77643 2.92427 4.11783 1.96613L25.0424 31.2605ZM32.488 13.1025L31.8258 9.29806L-3.64089 15.4716L-2.97867 19.276L32.488 13.1025ZM31.8222 9.27726C32.7568 14.6096 30.9562 20.007 27.1137 23.7027L2.15848 -2.24414C-2.57772 2.31106 -4.7844 8.9475 -3.63726 15.4924L31.8222 9.27726ZM27.1068 23.7093L29.9112 21.0149L4.96987 -4.9452L2.16541 -2.25079L27.1068 23.7093ZM29.8509 21.0727C37.4023 13.8846 35.6078 4.90344 34.674 2.03015L0.43674 13.1572C-0.0619819 11.6227 -0.697945 8.95257 -0.296922 5.62544C0.151186 1.90767 1.84069 -1.96689 5.03025 -5.00294L29.8509 21.0727ZM34.6919 2.08553C33.7553 -0.828184 29.977 -9.05201 19.7596 -10.5279L14.613 25.1024C10.3333 24.4842 6.73826 22.3599 4.20851 19.6093C1.93888 17.1415 0.902299 14.606 0.418839 13.1019L34.6919 2.08553ZM19.7532 -10.5288L15.8748 -11.0876L10.7409 24.5445L14.6194 25.1033L19.7532 -10.5288ZM15.8573 -11.0901C21.067 -10.3447 25.6164 -7.09438 27.9949 -2.33749L-4.2045 13.7622C-1.27768 19.6158 4.32869 23.627 10.7584 24.547L15.8573 -11.0901ZM27.9896 -2.34807L26.2553 -5.81096L-5.93349 10.3099L-4.1992 13.7728L27.9896 -2.34807ZM26.2876 -5.74613C21.5643 -15.2729 12.2164 -16.0001 9.7501 -16.0001V19.9999C8.32392 19.9999 5.69698 19.831 2.71931 18.5257C-0.613374 17.0648 -3.93196 14.3472 -5.9658 10.2451L26.2876 -5.74613ZM5.19332 0.128464C8.60995 0.128464 11.9358 1.21328 14.6863 3.21935L-6.52729 32.3052C-3.11076 34.797 0.993027 36.1285 5.19332 36.1285V0.128464ZM14.7178 3.24239C19.6284 6.84022 22.1407 12.9557 21.0763 19.0448L-14.386 12.8461C-15.6951 20.3355 -12.6192 27.8418 -6.55881 32.2821L14.7178 3.24239ZM21.08 19.0236L21.7404 15.2192L-13.7293 9.06282L-14.3897 12.8673L21.08 19.0236ZM21.7376 15.2352C22.8212 9.02496 20.6453 2.91663 16.3675 -1.2056L-8.61266 24.7172C-12.6817 20.7961 -14.7609 14.9743 -13.7266 9.0468L21.7376 15.2352ZM16.3481 -1.22426L13.5436 -3.91867L-11.3977 22.0415L-8.59327 24.7359L16.3481 -1.22426ZM13.5231 -3.93837C17.9729 0.323311 19.6211 6.77688 17.7253 12.6703L-16.5452 1.64618C-18.8774 8.89627 -16.8592 16.8109 -11.3772 22.0612L13.5231 -3.93837ZM17.7293 12.658C15.8296 18.5782 10.7124 22.8344 4.65316 23.6989L-0.431414 -11.9402C-7.92705 -10.8708 -14.2092 -5.6336 -16.5492 1.6585L17.7293 12.658ZM4.67781 23.6954L8.55624 23.1366L3.42237 -12.4955L-0.456062 -11.9367L4.67781 23.6954ZM8.47169 23.1485C14.3224 22.3339 19.6857 18.7015 22.479 13.0328L-9.81347 -2.87941C-7.14924 -8.28623 -2.044 -11.7346 3.50693 -12.5075L8.47169 23.1485ZM22.4307 13.1301L24.164 9.66529L-8.03183 -6.44146L-9.76517 -2.97668L22.4307 13.1301ZM24.161 9.67132C21.4027 15.1797 15.7844 18.5768 9.7501 18.5768V-17.4232C2.27752 -17.4232 -4.63109 -13.2329 -8.02881 -6.4475L24.161 9.67132ZM9.7501 18.5768C3.71581 18.5768 -1.90252 15.1797 -4.6608 9.67132L27.529 -6.4475C24.1313 -13.2329 17.2227 -17.4232 9.7501 -17.4232V18.5768ZM-4.66117 9.67058L-2.92688 13.1344L29.2637 -2.98291L27.5294 -6.44675L-4.66117 9.67058ZM-2.95442 13.0792C-0.205775 18.6163 5.07186 22.3138 11.013 23.1464L16.0088 -12.5053C21.652 -11.7145 26.6735 -8.20105 29.2912 -2.92766L-2.95442 13.0792ZM10.944 23.1366L14.8224 23.6954L19.9563 -11.9367L16.0778 -12.4955L10.944 23.1366ZM14.847 23.6989C8.78779 22.8344 3.67064 18.5782 1.77092 12.658L36.0494 1.6585C33.7094 -5.63361 27.4272 -10.8708 19.9316 -11.9402L14.847 23.6989ZM1.77488 12.6703C-0.126748 6.75869 1.54017 0.310059 5.97615 -3.93837L30.8764 22.0612C36.3446 16.8241 38.3835 8.91446 36.0454 1.64618L1.77488 12.6703ZM5.95561 -3.91867L3.15114 -1.22426L28.0925 24.7359L30.897 22.0415L5.95561 -3.91867ZM3.13175 -1.2056C-1.19334 2.96221 -3.31579 9.09558 -2.23381 15.2545L33.2232 9.02557C34.2558 14.9037 32.2283 20.7505 28.1119 24.7172L3.13175 -1.2056ZM-2.23953 15.2218L-1.57826 19.0271L33.8902 12.8637L33.2289 9.05832L-2.23953 15.2218ZM-1.57995 19.0174C-2.63007 12.9546 -0.13431 6.82996 4.80846 3.22263L26.031 32.3019C32.1256 27.854 35.1849 20.3384 33.8919 12.8734L-1.57995 19.0174ZM4.7752 3.24696C9.73586 -0.390855 16.3317 -0.875575 21.7535 1.95111L5.11078 33.8732C11.821 37.3716 19.9367 36.7711 26.0643 32.2775L4.7752 3.24696ZM21.7139 1.93052L18.2482 0.13456L1.68466 32.0978L5.15039 33.8938L21.7139 1.93052ZM18.2391 0.129849C12.9151 -2.62523 6.58419 -2.62523 1.26019 0.129849L17.8055 32.1025C12.7528 34.7172 6.74643 34.7172 1.69376 32.1025L18.2391 0.129849ZM1.24764 0.136349L-2.2181 1.93326L14.3523 33.8929L17.818 32.096L1.24764 0.136349ZM-2.24413 1.94678C0.0528536 0.751091 2.6059 0.128464 5.19332 0.128464V36.1285C8.37654 36.1285 11.5273 35.3635 14.3783 33.8794L-2.24413 1.94678Z" fill="black" fill-opacity="0.6" mask="url(#path-1-inside-1_273_262)"/>
</svg>
