<svg width="19" height="19" viewBox="0 0 19 19" fill="none" xmlns="http://www.w3.org/2000/svg">
<path fill-rule="evenodd" clip-rule="evenodd" d="M9.7501 1.99995C9.66376 1.99995 9.45125 2.02367 9.33835 2.24947L7.60596 5.7133C7.33177 6.26072 6.80332 6.64117 6.19234 6.72845L2.3139 7.28725C2.05775 7.32426 1.97046 7.514 1.9439 7.5937C1.92018 7.67054 1.88223 7.86598 2.05869 8.03486L4.86316 10.7293C5.31001 11.159 5.51304 11.7786 5.40678 12.3848L4.74646 16.1892C4.70567 16.4274 4.85462 16.5659 4.92103 16.6133C4.99124 16.6665 5.17909 16.7718 5.41153 16.6503L8.87916 14.8525C9.42563 14.5707 10.0765 14.5707 10.621 14.8525L14.0877 16.6494C14.3211 16.7699 14.509 16.6646 14.5801 16.6133C14.6465 16.5659 14.7955 16.4274 14.7547 16.1892L14.0925 12.3848C13.9862 11.7786 14.1892 11.159 14.6361 10.7293L17.4406 8.03486C17.618 7.86598 17.58 7.6696 17.5554 7.5937C17.5297 7.514 17.4425 7.32426 17.1863 7.28725L13.3079 6.72845C12.6978 6.64117 12.1694 6.26072 11.8952 5.71235L10.1609 2.24947C10.049 2.02367 9.83643 1.99995 9.7501 1.99995ZM5.19332 18.1285C4.80149 18.1285 4.41251 18.0051 4.0795 17.7623C3.50457 17.341 3.22279 16.6456 3.34518 15.9454L4.0055 12.141C4.03017 11.9996 3.98178 11.8564 3.87742 11.7558L1.07296 9.06139C0.556845 8.5671 0.371841 7.83657 0.59005 7.15823C0.810157 6.47229 1.39268 5.98179 2.11087 5.87933L5.98931 5.32052C6.13921 5.29965 6.26824 5.20762 6.33275 5.0767L8.06609 1.61191C8.38582 0.973415 9.03096 0.576843 9.7501 0.576843C10.4692 0.576843 11.1144 0.973415 11.4341 1.61191L13.1684 5.07575C13.2339 5.20762 13.3619 5.29965 13.5109 5.32052L17.3893 5.87933C18.1075 5.98179 18.69 6.47229 18.9101 7.15823C19.1284 7.83657 18.9424 8.5671 18.4263 9.06139L15.6218 11.7558C15.5175 11.8564 15.47 11.9996 15.4947 12.14L16.156 15.9454C16.2774 16.6465 15.9956 17.342 15.4197 17.7623C14.8363 18.1901 14.0763 18.248 13.4321 17.9122L9.96641 16.1162C9.83074 16.046 9.66851 16.046 9.53284 16.1162L6.06711 17.9131C5.79007 18.0573 5.49122 18.1285 5.19332 18.1285Z" fill="black"/>
</svg>
