<svg width="28" height="28" viewBox="0 0 28 28" fill="none" xmlns="http://www.w3.org/2000/svg">
<path d="M26.3077 20.2357V23.9023C26.3091 24.2427 26.2394 24.5797 26.103 24.8915C25.9666 25.2034 25.7666 25.4834 25.5158 25.7135C25.265 25.9436 24.9688 26.1188 24.6464 26.2279C24.3239 26.3369 23.9823 26.3774 23.6433 26.3468C19.8823 25.9381 16.2696 24.653 13.0955 22.5946C10.1424 20.718 7.63866 18.2143 5.76214 15.2612C3.69656 12.0727 2.41111 8.44245 2.00992 4.66456C1.97938 4.32658 2.01955 3.98594 2.12787 3.66433C2.23619 3.34272 2.41028 3.04718 2.63908 2.79654C2.86787 2.54591 3.14635 2.34565 3.45678 2.20853C3.7672 2.07142 4.10278 2.00044 4.44214 2.00012H8.10881C8.70196 1.99428 9.277 2.20433 9.72674 2.5911C10.1765 2.97788 10.4702 3.515 10.5533 4.10234C10.708 5.27576 10.995 6.4279 11.4088 7.53679C11.5733 7.97425 11.6088 8.44968 11.5114 8.90675C11.4139 9.36382 11.1874 9.78337 10.8588 10.1157L9.30659 11.6679C11.0465 14.7278 13.58 17.2613 16.6399 19.0012L18.1921 17.449C18.5245 17.1204 18.944 16.8939 19.4011 16.7965C19.8581 16.699 20.3336 16.7346 20.771 16.899C21.8799 17.3128 23.0321 17.5998 24.2055 17.7546C24.7992 17.8383 25.3414 18.1374 25.729 18.5948C26.1166 19.0523 26.3226 19.6363 26.3077 20.2357Z" stroke="#FDC022" stroke-width="2.66667" stroke-linecap="round" stroke-linejoin="round"/>
</svg>
